<?xml version="1.0" encoding="utf-8"?>
<!-- Generator: Adobe Illustrator 16.0.4, SVG Export Plug-In . SVG Version: 6.00 Build 0)  -->
<!DOCTYPE svg PUBLIC "-//W3C//DTD SVG 1.1//EN" "http://www.w3.org/Graphics/SVG/1.1/DTD/svg11.dtd">
<svg version="1.1" id="Layer_1" xmlns="http://www.w3.org/2000/svg" xmlns:xlink="http://www.w3.org/1999/xlink" x="0px" y="0px"
	 width="251px" height="163.033px" viewBox="0 0 251 163.033" enable-background="new 0 0 251 163.033" xml:space="preserve">
		<path class="museum-icon-bg" fill="#ededed" d="M195.767,69.737h5.78c1.585,0,2.87-1.293,2.87-2.89v-5.82c0-1.596-1.285-2.89-2.87-2.89h-5.78
			c-1.586,0-2.87,1.294-2.87,2.89v5.82C192.896,68.444,194.181,69.737,195.767,69.737z M195.767,92.937h5.78
			c1.585,0,2.87-1.294,2.87-2.89v-5.82c0-1.596-1.285-2.89-2.87-2.89h-5.78c-1.586,0-2.87,1.294-2.87,2.89v5.82
			C192.896,91.643,194.181,92.937,195.767,92.937z M218.808,69.737h5.781c1.585,0,2.87-1.293,2.87-2.89v-5.82
			c0-1.596-1.285-2.89-2.87-2.89h-5.781c-1.585,0-2.87,1.294-2.87,2.89v5.82C215.938,68.444,217.223,69.737,218.808,69.737z
			 M218.808,92.937h5.781c1.585,0,2.87-1.294,2.87-2.89v-5.82c0-1.596-1.285-2.89-2.87-2.89h-5.781c-1.585,0-2.87,1.294-2.87,2.89
			v5.82C215.938,91.643,217.223,92.937,218.808,92.937z M218.808,114.976h5.781c1.585,0,2.87-1.294,2.87-2.89v-5.82
			c0-1.596-1.285-2.89-2.87-2.89h-5.781c-1.585,0-2.87,1.294-2.87,2.89v5.82C215.938,113.682,217.223,114.976,218.808,114.976z
			 M26.412,69.737h5.78c1.585,0,2.87-1.293,2.87-2.89v-5.82c0-1.596-1.285-2.89-2.87-2.89h-5.78c-1.585,0-2.87,1.294-2.87,2.89v5.82
			C23.542,68.444,24.826,69.737,26.412,69.737z M26.412,92.937h5.78c1.585,0,2.87-1.294,2.87-2.89v-5.82
			c0-1.596-1.285-2.89-2.87-2.89h-5.78c-1.585,0-2.87,1.294-2.87,2.89v5.82C23.542,91.643,24.826,92.937,26.412,92.937z
			 M26.412,114.976h5.78c1.585,0,2.87-1.294,2.87-2.89v-5.82c0-1.596-1.285-2.89-2.87-2.89h-5.78c-1.585,0-2.87,1.294-2.87,2.89
			v5.82C23.542,113.682,24.826,114.976,26.412,114.976z M48.301,69.737h5.781c1.585,0,2.87-1.293,2.87-2.89v-5.82
			c0-1.596-1.285-2.89-2.87-2.89h-5.781c-1.585,0-2.87,1.294-2.87,2.89v5.82C45.431,68.444,46.716,69.737,48.301,69.737z
			 M48.301,92.937h5.781c1.585,0,2.87-1.294,2.87-2.89v-5.82c0-1.596-1.285-2.89-2.87-2.89h-5.781c-1.585,0-2.87,1.294-2.87,2.89
			v5.82C45.431,91.643,46.716,92.937,48.301,92.937z M116.293,69.737h-5.781c-1.585,0-2.87,1.293-2.87,2.89v5.82
			c0,1.596,1.285,2.89,2.87,2.89h5.781c1.585,0,2.87-1.293,2.87-2.89v-5.82C119.164,71.031,117.879,69.737,116.293,69.737z
			 M116.293,46.538h-5.781c-1.585,0-2.87,1.294-2.87,2.89v5.82c0,1.596,1.285,2.89,2.87,2.89h5.781c1.585,0,2.87-1.293,2.87-2.89
			v-5.82C119.164,47.832,117.879,46.538,116.293,46.538z M116.293,92.937h-5.781c-1.585,0-2.87,1.294-2.87,2.89v5.82
			c0,1.596,1.285,2.89,2.87,2.89h5.781c1.585,0,2.87-1.294,2.87-2.89v-5.82C119.164,94.23,117.879,92.937,116.293,92.937z
			 M133.555,81.337h5.78c1.585,0,2.87-1.293,2.87-2.89v-5.82c0-1.596-1.285-2.89-2.87-2.89h-5.78c-1.586,0-2.87,1.293-2.87,2.89
			v5.82C130.685,80.043,131.969,81.337,133.555,81.337z M245.034,23.339h-63.215l-57.399-22.8l-55.431,22.8H5.808
			c-3.139,0-5.308,2.315-5.308,5.476v115.587c0,3.16,2.169,5.371,5.308,5.371h56.904v6.809c0,3.16,2.169,5.951,5.308,5.951h114.802
			c3.139,0,5.466-2.791,5.466-5.951v-6.809h56.746c3.14,0,5.466-2.211,5.466-5.371V28.815
			C250.5,25.655,248.174,23.339,245.034,23.339z M62.712,138.175H12.021V34.939h50.691V138.175z M176.768,150.934h-10.369V38.146
			c0-1.535-1.898-3.207-3.424-3.207h-3.436c-1.524,0-2.357,1.672-2.357,3.207v112.788h-14.977v-20.359
			c0-1.534-0.909-2.84-2.434-2.84h-28.701c-1.524,0-3.428,1.306-3.428,2.84v20.359H94.97V38.146c0-1.535-1.899-3.207-3.423-3.207
			H88.11c-1.524,0-2.357,1.672-2.357,3.207v112.788H74.233V35.297l50.769-23.199l51.766,23.199V150.934z M238.979,138.175h-50.691
			V34.939h50.691V138.175z M133.555,58.138h5.78c1.585,0,2.87-1.293,2.87-2.89v-5.82c0-1.596-1.285-2.89-2.87-2.89h-5.78
			c-1.586,0-2.87,1.294-2.87,2.89v5.82C130.685,56.844,131.969,58.138,133.555,58.138z M133.555,104.536h5.78
			c1.585,0,2.87-1.294,2.87-2.89v-5.82c0-1.596-1.285-2.89-2.87-2.89h-5.78c-1.586,0-2.87,1.294-2.87,2.89v5.82
			C130.685,103.242,131.969,104.536,133.555,104.536z"/>
		<path class="museum-icon-stroke" fill="none" stroke="#ddd" stroke-miterlimit="10" d="M195.767,69.737h5.78c1.585,0,2.87-1.293,2.87-2.89v-5.82
			c0-1.596-1.285-2.89-2.87-2.89h-5.78c-1.586,0-2.87,1.294-2.87,2.89v5.82C192.896,68.444,194.181,69.737,195.767,69.737z
			 M195.767,92.937h5.78c1.585,0,2.87-1.294,2.87-2.89v-5.82c0-1.596-1.285-2.89-2.87-2.89h-5.78c-1.586,0-2.87,1.294-2.87,2.89
			v5.82C192.896,91.643,194.181,92.937,195.767,92.937z M218.808,69.737h5.781c1.585,0,2.87-1.293,2.87-2.89v-5.82
			c0-1.596-1.285-2.89-2.87-2.89h-5.781c-1.585,0-2.87,1.294-2.87,2.89v5.82C215.938,68.444,217.223,69.737,218.808,69.737z
			 M218.808,92.937h5.781c1.585,0,2.87-1.294,2.87-2.89v-5.82c0-1.596-1.285-2.89-2.87-2.89h-5.781c-1.585,0-2.87,1.294-2.87,2.89
			v5.82C215.938,91.643,217.223,92.937,218.808,92.937z M218.808,114.976h5.781c1.585,0,2.87-1.294,2.87-2.89v-5.82
			c0-1.596-1.285-2.89-2.87-2.89h-5.781c-1.585,0-2.87,1.294-2.87,2.89v5.82C215.938,113.682,217.223,114.976,218.808,114.976z
			 M26.412,69.737h5.78c1.585,0,2.87-1.293,2.87-2.89v-5.82c0-1.596-1.285-2.89-2.87-2.89h-5.78c-1.585,0-2.87,1.294-2.87,2.89v5.82
			C23.542,68.444,24.826,69.737,26.412,69.737z M26.412,92.937h5.78c1.585,0,2.87-1.294,2.87-2.89v-5.82
			c0-1.596-1.285-2.89-2.87-2.89h-5.78c-1.585,0-2.87,1.294-2.87,2.89v5.82C23.542,91.643,24.826,92.937,26.412,92.937z
			 M26.412,114.976h5.78c1.585,0,2.87-1.294,2.87-2.89v-5.82c0-1.596-1.285-2.89-2.87-2.89h-5.78c-1.585,0-2.87,1.294-2.87,2.89
			v5.82C23.542,113.682,24.826,114.976,26.412,114.976z M48.301,69.737h5.781c1.585,0,2.87-1.293,2.87-2.89v-5.82
			c0-1.596-1.285-2.89-2.87-2.89h-5.781c-1.585,0-2.87,1.294-2.87,2.89v5.82C45.431,68.444,46.716,69.737,48.301,69.737z
			 M48.301,92.937h5.781c1.585,0,2.87-1.294,2.87-2.89v-5.82c0-1.596-1.285-2.89-2.87-2.89h-5.781c-1.585,0-2.87,1.294-2.87,2.89
			v5.82C45.431,91.643,46.716,92.937,48.301,92.937z M116.293,69.737h-5.781c-1.585,0-2.87,1.293-2.87,2.89v5.82
			c0,1.596,1.285,2.89,2.87,2.89h5.781c1.585,0,2.87-1.293,2.87-2.89v-5.82C119.164,71.031,117.879,69.737,116.293,69.737z
			 M116.293,46.538h-5.781c-1.585,0-2.87,1.294-2.87,2.89v5.82c0,1.596,1.285,2.89,2.87,2.89h5.781c1.585,0,2.87-1.293,2.87-2.89
			v-5.82C119.164,47.832,117.879,46.538,116.293,46.538z M116.293,92.937h-5.781c-1.585,0-2.87,1.294-2.87,2.89v5.82
			c0,1.596,1.285,2.89,2.87,2.89h5.781c1.585,0,2.87-1.294,2.87-2.89v-5.82C119.164,94.23,117.879,92.937,116.293,92.937z
			 M133.555,81.337h5.78c1.585,0,2.87-1.293,2.87-2.89v-5.82c0-1.596-1.285-2.89-2.87-2.89h-5.78c-1.586,0-2.87,1.293-2.87,2.89
			v5.82C130.685,80.043,131.969,81.337,133.555,81.337z M245.034,23.339h-63.215l-57.399-22.8l-55.431,22.8H5.808
			c-3.139,0-5.308,2.315-5.308,5.476v115.587c0,3.16,2.169,5.371,5.308,5.371h56.904v6.809c0,3.16,2.169,5.951,5.308,5.951h114.802
			c3.139,0,5.466-2.791,5.466-5.951v-6.809h56.746c3.14,0,5.466-2.211,5.466-5.371V28.815
			C250.5,25.655,248.174,23.339,245.034,23.339z M62.712,138.175H12.021V34.939h50.691V138.175z M176.768,150.934h-10.369V38.146
			c0-1.535-1.898-3.207-3.424-3.207h-3.436c-1.524,0-2.357,1.672-2.357,3.207v112.788h-14.977v-20.359
			c0-1.534-0.909-2.84-2.434-2.84h-28.701c-1.524,0-3.428,1.306-3.428,2.84v20.359H94.97V38.146c0-1.535-1.899-3.207-3.423-3.207
			H88.11c-1.524,0-2.357,1.672-2.357,3.207v112.788H74.233V35.297l50.769-23.199l51.766,23.199V150.934z M238.979,138.175h-50.691
			V34.939h50.691V138.175z M133.555,58.138h5.78c1.585,0,2.87-1.293,2.87-2.89v-5.82c0-1.596-1.285-2.89-2.87-2.89h-5.78
			c-1.586,0-2.87,1.294-2.87,2.89v5.82C130.685,56.844,131.969,58.138,133.555,58.138z M133.555,104.536h5.78
			c1.585,0,2.87-1.294,2.87-2.89v-5.82c0-1.596-1.285-2.89-2.87-2.89h-5.78c-1.586,0-2.87,1.294-2.87,2.89v5.82
			C130.685,103.242,131.969,104.536,133.555,104.536z"/>
</svg>
